<svg width="48" height="48" viewBox="0 0 48 48" fill="none" xmlns="http://www.w3.org/2000/svg">
<path d="M30.5 40.5C30.5 41.6457 29.4516 43.1445 26.6771 44.4451C24.0221 45.6896 20.2488 46.5 16 46.5C11.7512 46.5 7.97793 45.6896 5.32294 44.4451C2.54839 43.1445 1.5 41.6457 1.5 40.5C1.5 39.6377 2.0711 38.574 3.6468 37.4984C5.14352 36.4767 7.33414 35.6079 10.0089 35.0717C10.1952 35.2393 10.4447 35.5412 10.7629 36.0052C11.4489 37.0058 12.2011 37.9553 13.0051 38.6689C13.7846 39.3607 14.8029 40 16 40C17.1971 40 18.2154 39.3607 18.9949 38.6689C19.7989 37.9553 20.5511 37.0058 21.2372 36.0052C21.5553 35.5412 21.8048 35.2393 21.9911 35.0717C24.6659 35.6079 26.8565 36.4767 28.3532 37.4984C29.9289 38.574 30.5 39.6377 30.5 40.5ZM9.88884 34.9783C9.88876 34.9778 9.89355 34.9802 9.90345 34.9868C9.89387 34.982 9.88892 34.9787 9.88884 34.9783ZM22.1112 34.9783C22.1111 34.9787 22.1061 34.982 22.0965 34.9867C22.1065 34.9802 22.1112 34.9778 22.1112 34.9783Z" stroke="#152C5B" stroke-width="3"/>
<path d="M28.5 13.3953C28.5 16.8294 27.0031 23.6526 24.5142 29.6467C23.2754 32.6301 21.833 35.3025 20.2863 37.2018C18.7014 39.1481 17.2445 40 16 40C14.7555 40 13.2986 39.1481 11.7137 37.2018C10.167 35.3025 8.72465 32.6301 7.48583 29.6467C4.99689 23.6526 3.5 16.8294 3.5 13.3953C3.5 6.88745 9.03334 1.5 16 1.5C22.9667 1.5 28.5 6.88745 28.5 13.3953Z" stroke="#152C5B" stroke-width="3"/>
<circle cx="16" cy="14" r="4.5" stroke="#FF49BB" stroke-width="3"/>
</svg>
